<svg id="visual" viewBox="0 0 900 600" width="900" height="600" xmlns="http://www.w3.org/2000/svg" xmlns:xlink="http://www.w3.org/1999/xlink" version="1.1"><rect x="0" y="0" width="900" height="600" fill="#1f2937"></rect><path d="M0 462L129 462L129 378L257 378L257 519L386 519L386 423L514 423L514 466L643 466L643 476L771 476L771 390L900 390L900 455L900 601L900 601L771 601L771 601L643 601L643 601L514 601L514 601L386 601L386 601L257 601L257 601L129 601L129 601L0 601Z" fill="#2b3542" stroke-linecap="square" stroke-linejoin="miter"></path></svg>