<svg id="visual" viewBox="0 0 900 600" width="900" height="600" xmlns="http://www.w3.org/2000/svg" xmlns:xlink="http://www.w3.org/1999/xlink" version="1.1"><rect x="0" y="0" width="900" height="600" fill="#1f2937"></rect><path d="M0 474L21.5 460.2C43 446.3 86 418.7 128.8 423.3C171.7 428 214.3 465 257.2 477.2C300 489.3 343 476.7 385.8 462.7C428.7 448.7 471.3 433.3 514.2 419.8C557 406.3 600 394.7 642.8 404.3C685.7 414 728.3 445 771.2 452.5C814 460 857 444 878.5 436L900 428L900 601L878.5 601C857 601 814 601 771.2 601C728.3 601 685.7 601 642.8 601C600 601 557 601 514.2 601C471.3 601 428.7 601 385.8 601C343 601 300 601 257.2 601C214.3 601 171.7 601 128.8 601C86 601 43 601 21.5 601L0 601Z" fill="#2b3542" stroke-linecap="round" stroke-linejoin="miter"></path></svg>